#!OML:ASF X:\für Bonn\!DataBase\2005_08_12_Daniel\c3d\Daniel.ASF
:FULLY-SPECIFIED
:DEGREES
85
root -3.09719 17.2976 -0.292201 48.1466 -87.7381 -65.0105
lowerback 27.8422 -10.1172 -9.99762
upperback 10.9831 -16.8277 -1.94095
thorax -0.317762 -9.24315 7.50348
lowerneck 8.816 10.5113 0.0403617
upperneck 14.0068 13.3617 -3.05907
head 3.31409 6.16002 -0.975239
rclavicle 3.57812e-015 1.11319e-013
rhumerus -39.3506 14.3313 -86.1017
rradius 69.5159
rwrist -2.96217
rhand -33.4017 38.6271
rfingers 7.12502
rthumb -6.60203 8.75
lclavicle 3.57812e-015 1.11319e-013
lhumerus 10.5957 1.54933 78.525
lradius 125.79
lwrist 48.7004
lhand -13.281 -10.8564
lfingers 7.12502
lthumb 12.8224 18.7298
rfemur -33.8671 -9.42611 12.0209
rtibia 76.6501
rfoot 6.01103 -1.56334
rtoes -12.4386
lfemur 3.23351 -13.5935 -22.2933
ltibia 31.9075
lfoot -26.6285 16.8708
ltoes 5.09905
86
root -3.11995 17.2988 -0.310672 56.0805 -88.3178 -72.5119
lowerback 27.0889 -9.86238 -9.95026
upperback 10.6653 -16.381 -1.90312
thorax -0.418465 -8.97346 7.33539
lowerneck 8.79612 10.4994 0.160942
upperneck 14.1547 13.3889 -3.44133
head 3.41413 6.16346 -1.11044
rclavicle -2.70347e-014 -3.26007e-014
rhumerus -38.4403 14.892 -86.6735
rradius 71.4461
rwrist -4.12131
rhand -32.9469 38.1911
rfingers 7.12502
rthumb -6.16293 8.30073
lclavicle -2.70347e-014 -3.26007e-014
lhumerus 8.77187 1.06426 78.231
lradius 125.342
lwrist 48.2749
lhand -13.2107 -10.5713
lfingers 7.12502
lthumb 12.8901 19.0106
rfemur -32.2636 -8.48589 11.5068
rtibia 74.2665
rfoot 6.45009 -1.84033
rtoes -12.3835
lfemur 2.98417 -13.4702 -22.5907
ltibia 31.8212
lfoot -26.9463 17.1315
ltoes 5.20179
87
root -3.14192 17.2972 -0.330886 73.5712 -88.8571 -89.5868
lowerback 26.3659 -9.57603 -9.9081
upperback 10.3419 -15.8997 -1.88731
thorax -0.544581 -8.68515 7.152
lowerneck 8.81536 10.4862 0.298167
upperneck 14.2863 13.4117 -3.79369
head 3.50102 6.16689 -1.24228
rclavicle -4.79071e-014 -1.90833e-014
rhumerus -37.4987 15.4776 -87.2388
rradius 73.355
rwrist -5.32051
rhand -32.6435 37.8703
rfingers 7.12502
rthumb -5.86999 7.97165
lclavicle -4.79071e-014 -1.90833e-014
lhumerus 6.95203 0.54145 77.8706
lradius 124.776
lwrist 47.8419
lhand -13.0953 -10.2453
lfingers 7.12502
lthumb 13.0013 19.3296
rfemur -30.7405 -7.46878 11.0192
rtibia 71.9092
rfoot 6.95866 -2.12934
rtoes -12.2755
lfemur 2.74811 -13.3227 -22.8957
ltibia 31.7387
lfoot -27.2567 17.4037
ltoes 5.37275
88
root -3.1628 17.2944 -0.352675 111.664 -89.1632 -127.247
lowerback 25.6385 -9.265 -9.89664
upperback 10.0246 -15.394 -1.85586
thorax -0.645553 -8.39028 6.99569
lowerneck 8.84484 10.4676 0.397173
upperneck 14.3639 13.4275 -4.15539
head 3.56502 6.16724 -1.37392
rclavicle 2.36554e-014 -1.35174e-014
rhumerus -36.4824 16.219 -87.7102
rradius 75.2389
rwrist -6.56089
rhand -32.5349 37.689
rfingers 7.12502
rthumb -5.76517 7.78744
lclavicle 2.36554e-014 -1.35174e-014
lhumerus 5.12873 -0.0402527 77.5077
lradius 124.177
lwrist 47.5115
lhand -12.9129 -9.91074
lfingers 7.12502
lthumb 13.1772 19.6528
rfemur -29.2792 -6.43814 10.5509
rtibia 69.5623
rfoot 7.44113 -2.47086
rtoes -11.9409
lfemur 2.47969 -13.1965 -23.2155
ltibia 31.6693
lfoot -27.6082 17.6885
ltoes 5.50377
89
root -3.18265 17.2912 -0.375973 153.874 -88.9198 -169.041
lowerback 24.9662 -8.94818 -9.8719
upperback 9.68643 -14.8838 -1.84169
thorax -0.799375 -8.08828 6.83255
lowerneck 8.93088 10.4675 0.583375
upperneck 14.4786 13.4711 -4.54553
head 3.64396 6.18258 -1.53147
rclavicle 4.73108e-014 4.29375e-014
rhumerus -35.4789 17.0734 -88.1395
rradius 77.0685
rwrist -7.73513
rhand -32.5826 37.5618
rfingers 7.12502
rthumb -5.81122 7.66144
lclavicle 4.73108e-014 4.29375e-014
lhumerus 3.17363 -0.703019 77.151
lradius 123.6
lwrist 47.0892
lhand -12.7219 -9.45894
lfingers 7.12502
lthumb 13.3613 20.0927
rfemur -27.8634 -5.37117 10.1369
rtibia 67.2501
rfoot 7.7398 -2.87066
rtoes -11.9549
lfemur 2.20763 -13.0607 -23.5118
ltibia 31.6361
lfoot -27.982 17.9865
ltoes 5.58613
90
root -3.20143 17.2834 -0.401504 175.467 -88.3555 -190.198
lowerback 24.2684 -8.60312 -9.87465
upperback 9.36466 -14.3421 -1.84782
thorax -0.920245 -7.77552 6.65176
lowerneck 9.03205 10.4365 0.870767
upperneck 14.5453 13.4854 -4.96226
head 3.71316 6.19144 -1.71718
rclavicle 5.9039e-014 -2.78299e-014
rhumerus -34.4162 17.8595 -88.4748
rradius 78.8138
rwrist -8.73868
rhand -32.6728 37.5797
rfingers 7.12502
rthumb -5.89837 7.68183
lclavicle 5.9039e-014 -2.78299e-014
lhumerus 1.22334 -1.46558 76.7941
lradius 122.961
lwrist 46.6721
lhand -12.4386 -9.00491
lfingers 7.12502
lthumb 13.6343 20.5286
rfemur -26.5961 -4.27709 9.70428
rtibia 65.0483
rfoot 7.90094 -3.3156
rtoes -12.0846
lfemur 1.89334 -12.9385 -23.8404
ltibia 31.6256
lfoot -28.3881 18.273
ltoes 5.72985
91
root -3.2202 17.2747 -0.429802 185.326 -87.6602 -199.611
lowerback 23.5935 -8.24819 -9.91325
upperback 9.01636 -13.7965 -1.82721
thorax -1.05975 -7.46084 6.52685
lowerneck 9.1428 10.4188 1.16221
upperneck 14.6451 13.5166 -5.37184
head 3.79409 6.20747 -1.90258
rclavicle -1.28415e-013 5.56597e-015
rhumerus -33.1823 18.564 -88.7119
rradius 80.2283
rwrist -9.40288
rhand -32.819 37.7143
rfingers 7.12502
rthumb -6.03946 7.82036
lclavicle -1.28415e-013 5.56597e-015
lhumerus -0.813604 -2.28507 76.4681
lradius 122.323
lwrist 46.2662
lhand -12.2192 -8.57971
lfingers 7.12502
lthumb 13.8458 20.9394
rfemur -25.4884 -3.15799 9.29764
rtibia 62.9855
rfoot 7.92321 -3.59049
rtoes -12.274
lfemur 1.55755 -12.8577 -24.1673
ltibia 31.6353
lfoot -28.8292 18.6243
ltoes 5.75523
92
root -3.2389 17.2685 -0.46026 190.759 -86.9457 -204.639
lowerback 22.9515 -7.87684 -9.95537
upperback 8.70945 -13.2366 -1.83546
thorax -1.17373 -7.14497 6.37564
lowerneck 9.20208 10.3632 1.62783
upperneck 14.7653 13.5233 -5.87206
head 3.91426 6.21777 -2.14579
rclavicle 2.17073e-013 -3.02153e-014
rhumerus -31.6338 19.0179 -88.9317
rradius 81.2353
rwrist -9.78213
rhand -32.8387 37.9762
rfingers 7.12502
rthumb -6.05851 8.08282
lclavicle 2.17073e-013 -3.02153e-014
lhumerus -2.73451 -3.10144 76.2316
lradius 121.576
lwrist 45.8005
lhand -11.8778 -8.15149
lfingers 7.12502
lthumb 14.1747 21.3449
rfemur -24.4221 -2.08695 8.90584
rtibia 61.0474
rfoot 7.74376 -3.66958
rtoes -12.0835
lfemur 1.26221 -12.8268 -24.5074
ltibia 31.6593
lfoot -29.3133 18.9636
ltoes 5.90043
93
root -3.25707 17.2607 -0.492999 193.85 -86.2143 -207.305
lowerback 22.3126 -7.51013 -9.98944
upperback 8.38518 -12.6797 -1.83123
thorax -1.30162 -6.82939 6.23991
lowerneck 9.3672 10.3281 2.01332
upperneck 14.7755 13.5441 -6.33103
head 3.96701 6.23834 -2.37191
rclavicle -1.12313e-013 5.40694e-014
rhumerus -30.0487 19.4625 -89.0911
rradius 82.2063
rwrist -9.98886
rhand -32.8433 38.1633
rfingers 7.12502
rthumb -6.06295 8.27008
lclavicle -1.12313e-013 5.40694e-014
lhumerus -4.70847 -3.95388 75.9791
lradius 120.798
lwrist 45.3463
lhand -11.6295 -7.81887
lfingers 7.12502
lthumb 14.414 21.6606
rfemur -23.4648 -1.05402 8.56236
rtibia 59.2303
rfoot 7.29502 -3.58479
rtoes -11.4379
lfemur 0.930894 -12.7921 -24.8065
ltibia 31.6929
lfoot -29.7783 19.3238
ltoes 6.07031
94
root -3.27513 17.2513 -0.52877 196.279 -85.4893 -209.326
lowerback 21.7076 -7.13416 -10.0584
upperback 8.06582 -12.1225 -1.83875
thorax -1.43169 -6.51574 6.1182
lowerneck 9.42152 10.2942 2.42303
upperneck 15.1877 13.6163 -6.93472
head 3.71313 6.25156 -2.41637
rclavicle -9.93923e-015 2.62396e-014
rhumerus -28.4353 19.9543 -89.2085
rradius 83.1779
rwrist -10.1501
rhand -32.7376 38.2269
rfingers 7.12502
rthumb -5.96093 8.3308
lclavicle -9.93923e-015 2.62396e-014
lhumerus -6.73894 -4.83703 75.7442
lradius 120.026
lwrist 44.9514
lhand -11.4121 -7.61848
lfingers 7.12502
lthumb 14.6235 21.8459
rfemur -22.5493 -0.128005 8.2219
rtibia 57.5134
rfoot 6.58947 -3.34957
rtoes -10.7521
lfemur 0.6068 -12.7609 -25.1052
ltibia 31.7355
lfoot -30.265 19.6448
ltoes 6.17719
